<svg width="28" height="28" viewBox="0 0 28 28" fill="none" xmlns="http://www.w3.org/2000/svg">
<path d="M19.8718 7.24695C19.8718 7.9516 19.402 8.42137 18.6974 8.42137H9.30203C8.59737 8.42137 8.12761 7.9516 8.12761 7.24695V1.96209C8.12761 1.25744 8.59737 0.787675 9.30203 0.787675H18.6974C19.402 0.787675 19.8718 1.25744 19.8718 1.96209V7.24695Z" stroke="#6F7882" stroke-width="1.55" stroke-miterlimit="10" stroke-linecap="round" stroke-linejoin="round"/>
<path d="M12.0028 4.31094V4.89814" stroke="#6F7882" stroke-width="1.5753" stroke-miterlimit="10" stroke-linecap="round" stroke-linejoin="round"/>
<path d="M16.1138 4.31094V4.89814" stroke="#6F7882" stroke-width="1.5753" stroke-miterlimit="10" stroke-linecap="round" stroke-linejoin="round"/>
<path d="M19.4753 13.7651C16.4996 16.7012 11.5003 16.7012 8.52461 13.7651" stroke="#6F7882" stroke-width="1.5753" stroke-miterlimit="10" stroke-linecap="round" stroke-linejoin="round"/>
<path d="M23.2844 17.5234C18.1662 22.5734 9.83412 22.5734 4.71588 17.5234" stroke="#6F7882" stroke-width="1.5753" stroke-miterlimit="10" stroke-linecap="round" stroke-linejoin="round"/>
<path d="M27.212 21.9859C19.8321 29.0324 8.16733 28.9149 0.787551 21.8684" stroke="#6F7882" stroke-width="1.5753" stroke-miterlimit="10" stroke-linecap="round" stroke-linejoin="round"/>
</svg>
